<svg id="svg" xmlns="http://www.w3.org/2000/svg" xmlns:xlink="http://www.w3.org/1999/xlink" width="400" height="320.5811138014528" viewBox="0, 0, 400,320.5811138014528" version="1.1"><g id="svgg"><path id="path0" d="M198.396 0.214 C 194.560 0.607,188.368 2.239,185.193 3.692 C 166.185 12.392,161.767 35.040,175.745 52.125 C 183.503 61.608,184.030 70.836,177.193 77.481 C 171.945 82.581,172.235 82.543,136.808 82.754 C 109.129 82.920,106.803 82.976,104.574 83.530 C 94.253 86.099,86.797 93.308,83.976 103.448 C 83.268 105.992,83.260 106.272,83.071 136.006 C 82.900 163.062,82.827 166.178,82.331 167.834 C 78.038 182.160,65.496 185.126,52.501 174.888 C 29.611 156.855,1.223 170.410,1.243 199.363 C 1.264 229.456,30.021 242.461,53.889 223.173 C 63.907 215.078,75.774 216.736,80.670 226.915 C 82.965 231.687,82.856 230.013,83.070 263.833 C 83.261 294.019,83.269 294.330,83.973 296.844 C 86.659 306.440,93.605 313.502,103.128 316.321 L 105.694 317.081 136.167 317.081 L 166.640 317.081 169.046 316.330 C 182.772 312.044,186.057 299.258,176.437 287.570 C 157.486 264.547,171.031 234.928,200.481 234.994 C 230.070 235.060,243.315 264.422,224.262 287.712 C 214.893 299.165,218.542 312.808,231.968 316.519 C 234.718 317.279,292.742 317.391,295.750 316.642 C 304.521 314.457,311.909 308.157,315.218 300.039 C 317.428 294.618,317.331 296.161,317.556 262.871 C 317.737 236.079,317.819 232.522,318.292 230.954 C 322.473 217.106,334.874 214.085,347.364 223.874 C 371.380 242.696,400.664 227.809,398.937 197.657 C 397.329 169.585,370.702 157.705,347.766 174.826 C 335.169 184.230,323.475 182.607,319.287 170.875 C 317.686 166.391,317.766 167.984,317.555 136.167 C 317.361 106.731,317.349 106.299,316.648 103.627 C 314.050 93.712,306.602 86.352,296.391 83.609 C 294.088 82.990,292.700 82.954,263.833 82.760 C 237.038 82.580,233.484 82.498,231.917 82.025 C 218.251 77.899,214.895 64.933,224.396 52.966 C 234.880 39.762,236.192 25.749,228.063 13.793 C 222.500 5.610,208.454 -0.819,198.396 0.214 M173.914 91.196 C 185.276 96.963,185.374 112.514,174.084 118.164 C 159.465 125.480,145.251 107.831,155.470 95.051 C 159.498 90.012,168.058 88.223,173.914 91.196 M237.049 91.136 C 250.484 97.599,247.631 117.033,232.860 119.673 C 222.157 121.585,212.657 110.744,215.884 100.299 C 218.556 91.645,228.847 87.190,237.049 91.136 M282.415 149.758 C 285.781 151.554,286.943 155.038,285.817 159.959 C 278.071 193.812,249.611 220.887,215.397 226.953 C 170.300 234.949,126.768 207.468,114.497 163.258 C 112.634 156.547,114.567 152.470,120.100 151.440 C 124.887 150.548,127.384 152.867,129.482 160.153 C 144.715 213.066,210.169 230.536,250.624 192.487 C 260.003 183.666,267.496 170.682,270.746 157.620 C 272.842 149.194,276.606 146.658,282.415 149.758 " stroke="none" fill="#6cccf4" fill-rule="evenodd"></path><path id="path1" d="M0.000 160.385 L 0.000 320.770 200.000 320.770 L 400.000 320.770 400.000 160.385 L 400.000 0.000 300.642 0.036 C 214.185 0.068,201.658 0.131,204.170 0.522 C 232.342 4.908,242.219 30.519,224.396 52.966 C 214.895 64.933,218.251 77.899,231.917 82.025 C 233.484 82.498,237.038 82.580,263.833 82.760 C 292.700 82.954,294.088 82.990,296.391 83.609 C 306.602 86.352,314.050 93.712,316.648 103.627 C 317.349 106.299,317.361 106.731,317.555 136.167 C 317.766 167.984,317.686 166.391,319.287 170.875 C 323.475 182.607,335.169 184.230,347.766 174.826 C 370.702 157.705,397.329 169.585,398.937 197.657 C 400.664 227.809,371.380 242.696,347.364 223.874 C 334.874 214.085,322.473 217.106,318.292 230.954 C 317.819 232.522,317.737 236.079,317.556 262.871 C 317.331 296.161,317.428 294.618,315.218 300.039 C 311.909 308.157,304.521 314.457,295.750 316.642 C 292.742 317.391,234.718 317.279,231.968 316.519 C 218.542 312.808,214.893 299.165,224.262 287.712 C 243.315 264.422,230.070 235.060,200.481 234.994 C 171.031 234.928,157.486 264.547,176.437 287.570 C 186.057 299.258,182.772 312.044,169.046 316.330 L 166.640 317.081 136.167 317.081 L 105.694 317.081 103.128 316.321 C 93.605 313.502,86.659 306.440,83.973 296.844 C 83.269 294.330,83.261 294.019,83.070 263.833 C 82.856 230.013,82.965 231.687,80.670 226.915 C 75.774 216.736,63.907 215.078,53.889 223.173 C 30.021 242.461,1.264 229.456,1.243 199.363 C 1.223 170.410,29.611 156.855,52.501 174.888 C 65.496 185.126,78.038 182.160,82.331 167.834 C 82.827 166.178,82.900 163.062,83.071 136.006 C 83.260 106.272,83.268 105.992,83.976 103.448 C 86.797 93.308,94.253 86.099,104.574 83.530 C 106.803 82.976,109.129 82.920,136.808 82.754 C 172.235 82.543,171.945 82.581,177.193 77.481 C 184.030 70.836,183.503 61.608,175.745 52.125 C 161.767 35.040,166.185 12.392,185.193 3.692 C 188.394 2.227,194.718 0.567,198.396 0.227 C 199.102 0.161,154.751 0.084,99.840 0.054 L 0.000 0.000 0.000 160.385 M162.470 90.334 C 151.551 93.781,148.449 107.594,156.804 115.562 C 166.468 124.778,182.510 117.919,182.510 104.571 C 182.510 94.649,172.139 87.281,162.470 90.334 M225.939 90.257 C 212.944 94.483,211.513 112.080,223.670 118.164 C 239.091 125.881,253.466 105.858,241.100 93.886 C 237.509 90.410,230.574 88.750,225.939 90.257 M277.250 148.852 C 273.457 149.600,272.380 151.051,270.746 157.620 C 267.496 170.682,260.003 183.666,250.624 192.487 C 210.169 230.536,144.715 213.066,129.482 160.153 C 127.384 152.867,124.887 150.548,120.100 151.440 C 114.567 152.470,112.634 156.547,114.497 163.258 C 126.768 207.468,170.300 234.949,215.397 226.953 C 249.611 220.887,278.071 193.812,285.817 159.959 C 287.423 152.937,283.346 147.651,277.250 148.852 " stroke="none" fill="none" fill-rule="evenodd"></path></g></svg>